<svg width="489" height="40" viewBox="0 0 489 40" fill="none" xmlns="http://www.w3.org/2000/svg">
<path d="M20.1591 1.39713C25.4221 1.39713 29.9568 3.26894 33.763 7.01256L28.3356 12.44C26.033 10.1688 23.3232 9.03317 20.2061 9.03317C17.0264 9.03317 14.3166 10.1688 12.0767 12.44C9.82112 14.6956 8.69334 17.4132 8.69334 20.593C8.69334 23.7727 9.82112 26.4903 12.0767 28.7459C14.3009 31.0015 17.0107 32.1293 20.2061 32.1293C22.5557 32.1293 24.6938 31.4714 26.6204 30.1556C28.3904 28.9495 29.714 27.3988 30.5912 25.5035H19.7832V18.2434H39.2375C39.7387 24.7125 37.8983 30.0225 33.7161 34.1734C29.9411 37.917 25.4143 39.7888 20.1357 39.7888C14.81 39.7888 10.291 37.917 6.57874 34.1734C2.81946 30.4454 0.939819 25.9186 0.939819 20.593C0.939819 15.3143 2.81946 10.7797 6.57874 6.98906C10.3067 3.21412 14.8257 1.32665 20.1357 1.32665L20.1591 1.39713Z" fill="#272525"/>
<path d="M53.207 1.63209H60.8195V39.5069H53.207V1.63209Z" fill="#272525"/>
<path d="M98.9424 1.53811V9.12716H83.7173V16.7632H95.1361V24.3522H83.7173V39.5538H76.1048V1.53811H98.9424Z" fill="#272525"/>
<path d="M137.676 1.63209V9.17415H128.372V39.5069H120.736V9.17415H111.408V1.63209H137.676Z" fill="#272525"/>
<path d="M162.101 32.0588C163.198 32.0588 164.2 31.675 165.109 30.9075C166.048 30.1243 166.518 29.2236 166.518 28.2055C166.518 26.7331 165.641 25.6053 163.887 24.8222C163.307 24.5559 162.516 24.2818 161.514 23.9998L160.903 23.8353L160.339 23.6709C159.9 23.5612 159.54 23.4594 159.258 23.3654C156.783 22.5196 154.763 21.2117 153.196 19.4417C151.442 17.4837 150.565 15.283 150.565 12.8394C150.565 9.64406 151.701 6.91858 153.972 4.66301C156.227 2.4231 158.953 1.30315 162.148 1.30315C165.046 1.30315 167.576 2.25863 169.737 4.1696C171.899 6.04924 173.175 8.40663 173.567 11.2418L166.001 12.8394C166.001 11.79 165.626 10.8893 164.874 10.1375C164.122 9.3856 163.229 9.00968 162.195 9.00968C161.13 9.00968 160.222 9.3856 159.47 10.1375C158.702 10.905 158.318 11.8135 158.318 12.8629C158.318 14.3353 159.149 15.5101 160.809 16.3873C161.42 16.7162 162.179 17.0216 163.088 17.3036C163.386 17.3976 163.762 17.5151 164.216 17.656L164.756 17.797L165.273 17.9615C167.842 18.6977 169.941 19.9273 171.57 21.6503C173.371 23.5456 174.272 25.7463 174.272 28.2525C174.272 31.4009 173.05 34.1185 170.607 36.4054C168.21 38.661 165.398 39.7888 162.172 39.7888C159.227 39.7888 156.595 38.8411 154.277 36.9458C151.959 35.0349 150.581 32.6697 150.142 29.8502L157.708 28.2525C157.708 29.2706 158.177 30.1713 159.117 30.9545C160.026 31.7063 161.036 32.0823 162.148 32.0823L162.101 32.0588Z" fill="#272525"/>
<path d="M229.066 11.3357C228.91 10.6622 228.573 10.0983 228.056 9.64406C227.492 9.17415 226.842 8.93919 226.106 8.93919C224.43 8.93919 223.451 9.69105 223.169 11.1948C223.09 11.602 223.357 12.393 223.968 13.5678C224.86 15.3065 225.8 16.8337 226.787 18.1494C227.351 18.917 228.119 19.8098 229.09 20.8279L230.382 22.1672C230.93 22.7467 231.392 23.2323 231.768 23.6239C232.645 24.5794 233.335 25.2764 233.836 25.715C233.977 25.0414 234.071 24.2348 234.118 23.2949C234.133 22.9973 234.149 22.5666 234.165 22.0027L234.188 21.3213L234.212 20.593L241.331 20.499C241.221 24.9475 240.696 28.2133 239.757 30.2966L240.015 30.4611L240.297 30.649C240.532 30.79 240.736 30.9153 240.908 31.025C241.409 31.3226 241.863 31.5732 242.271 31.7768C243.414 32.3407 244.424 32.607 245.302 32.5757L245.278 39.6243C243.649 39.6243 242.012 39.2954 240.368 38.6375C239.741 38.3712 239.075 38.0501 238.37 37.6742C238.088 37.5176 237.783 37.3453 237.454 37.1573C237.25 37.032 236.969 36.8597 236.608 36.6404C236.17 36.3898 235.786 36.1157 235.457 35.8181C234.047 37.4314 232.089 38.5592 229.583 39.2014C227.797 39.6557 226.184 39.8828 224.743 39.8828C221.219 39.8828 218.235 38.6923 215.791 36.3115C213.363 33.9619 212.149 31.0955 212.149 27.7121C212.196 25.5192 212.752 23.7414 213.818 22.3786C214.883 21.0159 216.003 19.7706 217.177 18.6428C217.287 18.5332 217.499 18.3609 217.812 18.1259C217.232 17.3271 216.7 16.2698 216.214 14.954C215.682 13.5286 215.4 12.2599 215.368 11.1478C215.368 8.75123 216.332 6.58964 218.258 4.66301C219.104 3.81717 220.224 3.05748 221.618 2.38394C223.231 1.61642 224.727 1.23266 226.106 1.23266C228.706 1.23266 231.008 2.08633 233.013 3.79367C234.893 5.39137 236.099 7.37282 236.632 9.73804L229.066 11.3357ZM224.767 32.4347C225.534 32.4347 226.45 32.2624 227.515 31.9178C228.643 31.5419 229.34 31.1503 229.607 30.743V30.7665C229.168 30.3906 228.119 29.4508 226.458 27.9471C224.782 26.4433 223.419 24.8222 222.37 23.0835C221.681 23.5847 220.999 24.1721 220.326 24.8457C219.652 25.5192 219.339 26.5138 219.386 27.8296C219.386 28.4718 219.566 29.1453 219.926 29.8502C220.24 30.4454 220.616 30.9467 221.054 31.3539C221.79 32.0744 223.028 32.4347 224.767 32.4347Z" fill="#272525"/>
<path d="M303.15 26.1849L321.688 0.739258V39.5069H314.076V23.8118L303.15 38.896L292.201 23.8118V39.5069H284.589V0.739258L303.15 26.1849Z" fill="#272525"/>
<path d="M359.835 1.53811V9.12716H344.61V16.7632H356.028V24.3522H344.61V31.9883H359.835V39.5538H336.997V1.53811H359.835Z" fill="#272525"/>
<path d="M373.71 1.63209H386.069C390.079 1.63209 393.384 2.91651 395.984 5.48535C397.253 6.75411 398.153 7.95238 398.686 9.08016C399.328 10.4586 399.649 12.1267 399.649 14.0847V15.0715C399.649 17.6247 398.85 20.0291 397.253 22.2846C396.109 23.8823 394.598 25.0493 392.718 25.7855L401.529 39.5069H392.225L381.346 22.7546V39.5069H373.734L373.71 1.63209ZM386.797 19.6531C388.176 19.6531 389.358 19.1284 390.345 18.0789C391.316 17.0295 391.802 15.7764 391.802 14.3197C391.802 12.9413 391.3 11.7273 390.298 10.6779C389.264 9.67538 387.698 9.17415 385.599 9.17415H381.323V19.6296H384.26V19.6531H386.797Z" fill="#272525"/>
<path d="M446.818 34.1734C443.059 37.9013 438.516 39.7653 433.19 39.7653C427.896 39.7496 423.377 37.8857 419.634 34.1734C415.874 30.4141 413.995 25.8873 413.995 20.593C413.995 15.3143 415.874 10.7797 419.634 6.98906C423.409 3.21412 427.927 1.32665 433.19 1.32665L433.167 1.42063C438.367 1.42063 442.91 3.29244 446.794 7.03605L441.367 12.4635C439.08 10.2079 436.362 9.08016 433.214 9.08016C430.019 9.08016 427.309 10.2079 425.085 12.4635C422.829 14.7504 421.701 17.4681 421.701 20.6165C421.701 23.7962 422.829 26.5138 425.085 28.7694C427.324 31.0093 430.034 32.1293 433.214 32.1293C436.409 32.1293 439.135 31.0015 441.39 28.7459L446.818 34.1734Z" fill="#272525"/>
<path d="M468.306 1.63209V16.7867H480.97V1.63209H488.559V39.5069H480.97V24.3288H468.306V39.5069H460.717V1.63209H468.306Z" fill="#272525"/>
</svg>
