<svg width="489" height="40" viewBox="0 0 489 40" fill="none" xmlns="http://www.w3.org/2000/svg">
<path d="M20.1588 0.890296C25.4218 0.890296 29.9564 2.7621 33.7627 6.50572L28.3352 11.9332C26.0327 9.66195 23.3228 8.52634 20.2058 8.52634C17.026 8.52634 14.3162 9.66195 12.0763 11.9332C9.82076 14.1888 8.69297 16.9064 8.69297 20.0861C8.69297 23.2659 9.82076 25.9835 12.0763 28.2391C14.3006 30.4946 17.0104 31.6224 20.2058 31.6224C22.5553 31.6224 24.6934 30.9645 26.62 29.6488C28.39 28.4427 29.7136 26.892 30.5908 24.9967H19.7829V17.7366H39.2371C39.7384 24.2057 37.8979 29.5157 33.7157 33.6665C29.9407 37.4102 25.4139 39.282 20.1353 39.282C14.8096 39.282 10.2907 37.4102 6.57838 33.6665C2.81909 29.9386 0.939453 25.4118 0.939453 20.0861C0.939453 14.8075 2.81909 10.2728 6.57838 6.48223C10.3063 2.70728 14.8253 0.81981 20.1353 0.81981L20.1588 0.890296Z" fill="#272525"/>
<path d="M53.2066 1.12525H60.8192V39H53.2066V1.12525Z" fill="#272525"/>
<path d="M98.942 1.03127V8.62032H83.717V16.2564H95.1358V23.8454H83.717V39.047H76.1044V1.03127H98.942Z" fill="#272525"/>
<path d="M137.676 1.12525V8.66731H128.372V39H120.736V8.66731H111.408V1.12525H137.676Z" fill="#272525"/>
<path d="M162.101 31.5519C163.197 31.5519 164.2 31.1682 165.108 30.4007C166.048 29.6175 166.518 28.7168 166.518 27.6987C166.518 26.2263 165.641 25.0985 163.886 24.3153C163.307 24.049 162.516 23.7749 161.513 23.493L160.903 23.3285L160.339 23.164C159.9 23.0544 159.54 22.9526 159.258 22.8586C156.783 22.0128 154.762 20.7048 153.196 18.9348C151.442 16.9769 150.564 14.7761 150.564 12.3326C150.564 9.13722 151.7 6.41174 153.971 4.15617C156.227 1.91627 158.952 0.796314 162.148 0.796314C165.046 0.796314 167.575 1.7518 169.737 3.66277C171.898 5.54241 173.175 7.89979 173.567 10.7349L166.001 12.3326C166.001 11.2831 165.625 10.3825 164.873 9.63063C164.121 8.87877 163.229 8.50284 162.195 8.50284C161.13 8.50284 160.221 8.87877 159.469 9.63063C158.702 10.3981 158.318 11.3066 158.318 12.3561C158.318 13.8285 159.148 15.0033 160.809 15.8804C161.419 16.2094 162.179 16.5148 163.088 16.7968C163.385 16.8907 163.761 17.0082 164.215 17.1492L164.756 17.2902L165.273 17.4546C167.842 18.1908 169.94 19.4204 171.569 21.1434C173.371 23.0387 174.271 25.2395 174.271 27.7457C174.271 30.8941 173.05 33.6117 170.606 35.8986C168.21 38.1542 165.398 39.282 162.171 39.282C159.227 39.282 156.595 38.3343 154.277 36.439C151.959 34.528 150.58 32.1628 150.142 29.3434L157.707 27.7457C157.707 28.7638 158.177 29.6645 159.117 30.4476C160.025 31.1995 161.036 31.5754 162.148 31.5754L162.101 31.5519Z" fill="#272525"/>
<path d="M229.066 10.8289C228.909 10.1554 228.572 9.59147 228.056 9.13722C227.492 8.66731 226.842 8.43235 226.105 8.43235C224.429 8.43235 223.45 9.18421 223.168 10.6879C223.09 11.0952 223.356 11.8862 223.967 13.061C224.86 14.7996 225.8 16.3268 226.787 17.6426C227.351 18.4101 228.118 19.3029 229.089 20.3211L230.382 21.6603C230.93 22.2399 231.392 22.7255 231.768 23.117C232.645 24.0725 233.334 24.7696 233.835 25.2081C233.976 24.5346 234.07 23.7279 234.117 22.7881C234.133 22.4905 234.149 22.0598 234.164 21.4959L234.188 20.8145L234.211 20.0861L241.33 19.9921C241.221 24.4406 240.696 27.7065 239.756 29.7898L240.015 29.9542L240.297 30.1422C240.532 30.2832 240.735 30.4085 240.908 30.5181C241.409 30.8157 241.863 31.0664 242.27 31.27C243.414 31.8339 244.424 32.1002 245.301 32.0688L245.278 39.1175C243.649 39.1175 242.012 38.7886 240.367 38.1307C239.741 37.8644 239.075 37.5433 238.37 37.1674C238.088 37.0107 237.783 36.8384 237.454 36.6505C237.25 36.5252 236.968 36.3529 236.608 36.1336C236.169 35.8829 235.786 35.6088 235.457 35.3112C234.047 36.9246 232.089 38.0524 229.583 38.6946C227.797 39.1488 226.184 39.3759 224.743 39.3759C221.218 39.3759 218.234 38.1855 215.791 35.8046C213.363 33.4551 212.149 30.5886 212.149 27.2053C212.196 25.0124 212.752 23.2345 213.817 21.8718C214.882 20.509 216.002 19.2638 217.177 18.136C217.287 18.0264 217.498 17.8541 217.811 17.6191C217.232 16.8203 216.699 15.763 216.214 14.4472C215.681 13.0218 215.399 11.7531 215.368 10.6409C215.368 8.24439 216.331 6.0828 218.258 4.15617C219.104 3.31033 220.224 2.55065 221.618 1.87711C223.231 1.10959 224.727 0.725828 226.105 0.725828C228.706 0.725828 231.008 1.5795 233.013 3.28684C234.893 4.88453 236.099 6.86599 236.631 9.2312L229.066 10.8289ZM224.766 31.9279C225.534 31.9279 226.45 31.7556 227.515 31.411C228.643 31.035 229.34 30.6434 229.606 30.2362V30.2597C229.168 29.8838 228.118 28.9439 226.458 27.4402C224.782 25.9365 223.419 24.3153 222.37 22.5767C221.68 23.0779 220.999 23.6653 220.325 24.3388C219.652 25.0124 219.339 26.007 219.386 27.3227C219.386 27.965 219.566 28.6385 219.926 29.3434C220.239 29.9386 220.615 30.4398 221.054 30.8471C221.79 31.5676 223.027 31.9279 224.766 31.9279Z" fill="#272525"/>
<path d="M303.15 25.6781L321.688 0.232422V39H314.075V23.305L303.15 38.3891L292.201 23.305V39H284.589V0.232422L303.15 25.6781Z" fill="#272525"/>
<path d="M359.834 1.03127V8.62032H344.609V16.2564H356.028V23.8454H344.609V31.4815H359.834V39.047H336.997V1.03127H359.834Z" fill="#272525"/>
<path d="M373.71 1.12525H386.068C390.078 1.12525 393.383 2.40967 395.984 4.97852C397.252 6.24727 398.153 7.44554 398.686 8.57333C399.328 9.95173 399.649 11.6199 399.649 13.5779V14.5647C399.649 17.1179 398.85 19.5222 397.252 21.7778C396.109 23.3755 394.597 24.5424 392.718 25.2786L401.529 39H392.224L381.346 22.2477V39H373.733L373.71 1.12525ZM386.797 19.1463C388.175 19.1463 389.358 18.6216 390.345 17.5721C391.316 16.5226 391.801 15.2695 391.801 13.8128C391.801 12.4344 391.3 11.2205 390.298 10.171C389.264 9.16855 387.697 8.66731 385.599 8.66731H381.322V19.1228H384.259V19.1463H386.797Z" fill="#272525"/>
<path d="M446.818 33.6665C443.058 37.3945 438.516 39.2585 433.19 39.2585C427.896 39.2428 423.377 37.3788 419.633 33.6665C415.874 29.9073 413.994 25.3804 413.994 20.0861C413.994 14.8075 415.874 10.2728 419.633 6.48223C423.408 2.70728 427.927 0.81981 433.19 0.81981L433.167 0.913792C438.367 0.913792 442.909 2.7856 446.794 6.52922L441.367 11.9567C439.08 9.70111 436.362 8.57333 433.214 8.57333C430.018 8.57333 427.308 9.70111 425.084 11.9567C422.829 14.2436 421.701 16.9612 421.701 20.1096C421.701 23.2893 422.829 26.007 425.084 28.2626C427.324 30.5025 430.034 31.6224 433.214 31.6224C436.409 31.6224 439.134 30.4946 441.39 28.2391L446.818 33.6665Z" fill="#272525"/>
<path d="M468.306 1.12525V16.2799H480.97V1.12525H488.559V39H480.97V23.8219H468.306V39H460.717V1.12525H468.306Z" fill="#272525"/>
</svg>
