<svg width="30" height="18" viewBox="0 0 30 18" fill="none" xmlns="http://www.w3.org/2000/svg">
<path fill-rule="evenodd" clip-rule="evenodd" d="M2.25016 3.33333H27.7502C28.5326 3.33333 29.1668 2.69907 29.1668 1.91666C29.1668 1.13426 28.5326 0.5 27.7502 0.5H2.25016C1.46776 0.5 0.833496 1.13426 0.833496 1.91666C0.833496 2.69907 1.46776 3.33333 2.25016 3.33333ZM27.7502 14.6663H2.25024C1.46784 14.6663 0.833577 15.3006 0.833577 16.083C0.833577 16.8654 1.46784 17.4997 2.25024 17.4997H27.7502C28.5326 17.4997 29.1669 16.8654 29.1669 16.083C29.1669 15.3006 28.5326 14.6663 27.7502 14.6663ZM27.7502 7.58368H2.25024C1.46784 7.58368 0.833577 8.21794 0.833577 9.00035C0.833577 9.78275 1.46784 10.417 2.25024 10.417H27.7502C28.5326 10.417 29.1669 9.78275 29.1669 9.00035C29.1669 8.21794 28.5326 7.58368 27.7502 7.58368Z" fill="#272525"/>
</svg>
