<svg width="22" height="22" viewBox="0 0 22 22" fill="none" xmlns="http://www.w3.org/2000/svg">
<path fill-rule="evenodd" clip-rule="evenodd" d="M14.7134 7.29011C14.5256 7.1008 14.27 6.99431 14.0034 6.99431C13.7367 6.99431 13.4811 7.1008 13.2934 7.29011L11.0034 9.59011L8.71336 7.29011C8.32124 6.89799 7.68548 6.89799 7.29336 7.29011C6.90123 7.68223 6.90123 8.31799 7.29336 8.71011L9.59336 11.0001L7.29336 13.2901C7.10404 13.4779 6.99756 13.7335 6.99756 14.0001C6.99756 14.2667 7.10404 14.5223 7.29336 14.7101C7.48112 14.8994 7.73672 15.0059 8.00336 15.0059C8.26999 15.0059 8.52559 14.8994 8.71336 14.7101L11.0034 12.4101L13.2934 14.7101C13.4811 14.8994 13.7367 15.0059 14.0034 15.0059C14.27 15.0059 14.5256 14.8994 14.7134 14.7101C14.9027 14.5223 15.0092 14.2667 15.0092 14.0001C15.0092 13.7335 14.9027 13.4779 14.7134 13.2901L12.4134 11.0001L14.7134 8.71011C14.9027 8.52234 15.0092 8.26675 15.0092 8.00011C15.0092 7.73347 14.9027 7.47788 14.7134 7.29011ZM18.0735 3.92996C15.5628 1.3304 11.8447 0.287835 8.34843 1.20299C4.85213 2.11814 2.12168 4.84859 1.20653 8.34489C0.291375 11.8412 1.33394 15.5592 3.9335 18.07C6.44425 20.6695 10.1623 21.7121 13.6586 20.7969C17.1549 19.8818 19.8853 17.1513 20.8005 13.655C21.7156 10.1587 20.6731 6.44071 18.0735 3.92996ZM16.6646 16.66C13.9675 19.3602 9.73869 19.7792 6.56415 17.6608C3.38961 15.5425 2.15343 11.4767 3.61154 7.94982C5.06966 4.42293 8.816 2.41709 12.5596 3.15891C16.3033 3.90073 19.0016 7.18362 19.0046 11C19.0118 13.1235 18.1692 15.1616 16.6646 16.66Z" fill="#3E3E3E"/>
</svg>
